<?xml version="1.0" encoding="UTF-8"?>
<svg version="1.1" xmlns="http://www.w3.org/2000/svg" width="152" height="97">
<path d="M0 0 C0.98484375 -0.01160156 1.9696875 -0.02320312 2.984375 -0.03515625 C12.22967301 0.00232469 12.22967301 0.00232469 16 3.375 C19.1970933 7.3678143 19.51240371 11.31249414 19.875 16.25 C20.50208938 22.75385462 21.70674604 26.43775794 26 31.375 C28.91993879 38.47347189 29.26446492 46.65205264 27.27734375 54.07421875 C24.27213267 61.24049133 19.83835347 66.52842617 13 70.375 C10.125 71.125 10.125 71.125 8 71.375 C5.95973078 65.25419235 6.46013561 59.8940966 8.9375 54.0625 C10.97078834 50.26392121 12.52487786 48.67697784 16.625 47.3125 C18.07727906 46.97297401 19.53555332 46.65746818 21 46.375 C21.99 46.045 22.98 45.715 24 45.375 C23.54625 44.17875 23.0925 42.9825 22.625 41.75 C21.33582632 38.31627673 20.13380949 34.86364457 19 31.375 C17.35 31.375 15.7 31.375 14 31.375 C13.67 32.035 13.34 32.695 13 33.375 C14.65 33.375 16.3 33.375 18 33.375 C18.85856655 36.8092662 18.97591583 38.99182513 18 42.375 C15.89722877 42.59697585 13.79267698 42.80213637 11.6875 43 C10.51574219 43.11601563 9.34398437 43.23203125 8.13671875 43.3515625 C5 43.375 5 43.375 2 41.375 C2.165 40.859375 2.33 40.34375 2.5 39.8125 C3.15049 36.64136124 3.0620734 33.60281666 3 30.375 C1.34385343 29.99281233 -0.32457024 29.66104898 -2 29.375 C-3.38177162 30.5301251 -3.38177162 30.5301251 -3.125 33.6875 C-3.02893262 36.52148763 -2.85249568 38.71095099 -2 41.375 C-5.89718171 43.24165742 -8.54084185 43.51465761 -12.8125 43 C-13.78832031 42.88914063 -14.76414062 42.77828125 -15.76953125 42.6640625 C-16.50558594 42.56867187 -17.24164063 42.47328125 -18 42.375 C-19.125 35.625 -19.125 35.625 -18 33.375 C-16.35 33.375 -14.7 33.375 -13 33.375 C-13.33 32.715 -13.66 32.055 -14 31.375 C-15.65 31.375 -17.3 31.375 -19 31.375 C-19.268125 32.2 -19.53625 33.025 -19.8125 33.875 C-21.12524922 37.74415561 -22.55101284 41.55494294 -24 45.375 C-21.07764689 46.61478617 -18.67036565 47.42209062 -15.5 47.875 C-10.86772831 49.86025929 -9.8546319 52.2027696 -7.87109375 56.703125 C-6.25840271 61.64967511 -6.34057453 66.39672359 -8 71.375 C-14.92253035 69.9622387 -19.56644243 67.05042458 -23.515625 61.0859375 C-28.01840235 53.14138207 -28.73439971 46.50537474 -28 37.375 C-26.84359383 33.29895447 -25.27555275 29.78981905 -22.42578125 26.62890625 C-20.39568615 23.41968741 -20.29661317 20.13505277 -20 16.4375 C-19.50174549 10.26027643 -18.78158994 5.86321913 -14 1.5859375 C-9.38335292 -0.27755286 -4.92911772 -0.05806552 0 0 Z M-10.484375 9.171875 C-12.61456232 12.26833285 -12.28187584 14.71061404 -12 18.375 C-10.9790625 18.13136719 -10.9790625 18.13136719 -9.9375 17.8828125 C-6.57723003 17.30191477 -3.40949785 17.24265194 0 17.25 C1.19625 17.24742188 2.3925 17.24484375 3.625 17.2421875 C6.55327693 17.35742062 9.15786976 17.69676437 12 18.375 C12.44821908 13.48947345 12.44821908 13.48947345 10.484375 9.171875 C7.08012789 6.70968369 4.04287445 6.78711142 0 6.875 C-1.06734375 6.85179687 -1.06734375 6.85179687 -2.15625 6.828125 C-5.6179362 6.85395848 -7.65336392 7.12428837 -10.484375 9.171875 Z " fill="#E65743" transform="translate(76,-0.375)"/>
<path d="M0 0 C1.98 0.66 3.96 1.32 6 2 C6 3.32 6 4.64 6 6 C8.97 6.495 8.97 6.495 12 7 C12 8.65 12 10.3 12 12 C13.98 12.66 15.96 13.32 18 14 C16.83348574 19.92863717 15.24480642 25.38798394 13 31 C7.25 30.125 7.25 30.125 5 29 C4.67 30.32 4.34 31.64 4 33 C3.0925 32.62875 2.185 32.2575 1.25 31.875 C-2.4739723 30.87239207 -2.81531823 31.30150305 -6 33 C-7.32 32.34 -8.64 31.68 -10 31 C-9.01 27.04 -8.02 23.08 -7 19 C-9.64 18.01 -12.28 17.02 -15 16 C-15.33 13.69 -15.66 11.38 -16 9 C-15.07767578 9.2165625 -15.07767578 9.2165625 -14.13671875 9.4375 C-12.92435547 9.7159375 -12.92435547 9.7159375 -11.6875 10 C-10.88699219 10.185625 -10.08648437 10.37125 -9.26171875 10.5625 C-6.89304062 11.09495823 -6.89304062 11.09495823 -4 11 C-2.68 7.37 -1.36 3.74 0 0 Z M10 14 C11 16 11 16 11 16 Z M-6 15 C-5 17 -5 17 -5 17 Z M9 17 C10 19 10 19 10 19 Z M8 20 C9 22 9 22 9 22 Z M-1 23 C0 25 0 25 0 25 Z M7 23 C8 25 8 25 8 25 Z M-2 26 C-1 28 -1 28 -1 28 Z M6 26 C7 28 7 28 7 28 Z " fill="#FFFFFF" transform="translate(121,29)"/>
<path d="M0 0 C2.28459758 2.28459758 2.97129748 4.12537344 4.125 7.125 C4.47820313 8.03507812 4.83140625 8.94515625 5.1953125 9.8828125 C5.46085937 10.58148438 5.72640625 11.28015625 6 12 C6.81404297 11.67515625 6.81404297 11.67515625 7.64453125 11.34375 C8.35996094 11.0653125 9.07539062 10.786875 9.8125 10.5 C10.52019531 10.2215625 11.22789063 9.943125 11.95703125 9.65625 C14 9 14 9 17 9 C16.67 11.31 16.34 13.62 16 16 C13.36 16.99 10.72 17.98 8 19 C9.485 24.94 9.485 24.94 11 31 C9.02 31.66 7.04 32.32 5 33 C4.34 32.34 3.68 31.68 3 31 C1.02 31.66 -0.96 32.32 -3 33 C-3.33 31.68 -3.66 30.36 -4 29 C-4.763125 29.33 -5.52625 29.66 -6.3125 30 C-9 31 -9 31 -12 31 C-12.86762314 28.75438718 -13.7192103 26.50473745 -14.5625 24.25 C-14.80935547 23.61578125 -15.05621094 22.9815625 -15.31054688 22.328125 C-16.58197079 18.88990821 -17.46686355 16.47831118 -16 13 C-14.35 12.67 -12.7 12.34 -11 12 C-11 10.35 -11 8.7 -11 7 C-9.02 6.67 -7.04 6.34 -5 6 C-5 4.68 -5 3.36 -5 2 C-3.35 1.34 -1.7 0.68 0 0 Z M-10 14 C-9 16 -9 16 -9 16 Z M6 15 C7 17 7 17 7 17 Z M-9 17 C-8 19 -8 19 -8 19 Z M-8 20 C-7 22 -7 22 -7 22 Z M-7 23 C-6 25 -6 25 -6 25 Z M1 23 C2 25 2 25 2 25 Z M-6 26 C-5 28 -5 28 -5 28 Z M2 26 C3 28 3 28 3 28 Z " fill="#FFFFFF" transform="translate(30,29)"/>
<path d="M0 0 C11.33333333 0 22.66666667 0 34 0 C35.49498913 2.98997825 35.11577446 5.70042775 35 9 C34.67 9.99 34.34 10.98 34 12 C34.495 13.485 34.495 13.485 35 15 C35.33 10.05 35.66 5.1 36 0 C39.3 0 42.6 0 46 0 C46 0.99 46 1.98 46 3 C44.35 3 42.7 3 41 3 C41 4.32 41 5.64 41 7 C42.32 7 43.64 7 45 7 C45 7.99 45 8.98 45 10 C43.68 10 42.36 10 41 10 C41 11.32 41 12.64 41 14 C42.65 14 44.3 14 46 14 C46 14.99 46 15.98 46 17 C40.72 17 35.44 17 30 17 C29.67 16.34 29.34 15.68 29 15 C28.67 15.66 28.34 16.32 28 17 C26.35 17 24.7 17 23 17 C23 12.38 23 7.76 23 3 C22.01 3 21.02 3 20 3 C20 7.62 20 12.24 20 17 C18.35 17 16.7 17 15 17 C15 12.38 15 7.76 15 3 C14.01 3 13.02 3 12 3 C10.50643889 5.37212647 9.95994367 6.60945078 10.25 9.4375 C11.01214591 12.04149851 11.93155498 14.50696162 13 17 C11.02 17 9.04 17 7 17 C6.67 16.34 6.34 15.68 6 15 C5.67 15.66 5.34 16.32 5 17 C3.35 17 1.7 17 0 17 C0.350625 15.96875 0.70125 14.9375 1.0625 13.875 C2.01163823 9.9518953 1.94322082 7.85863065 1 4 C0.814375 3.21625 0.62875 2.4325 0.4375 1.625 C0.293125 1.08875 0.14875 0.5525 0 0 Z M28 3 C28 4.65 28 6.3 28 8 C28.66 8 29.32 8 30 8 C30 6.35 30 4.7 30 3 C29.34 3 28.68 3 28 3 Z " fill="#FFFFFF" transform="translate(0,80)"/>
<path d="M0 0 C3.3 0 6.6 0 10 0 C10 0.99 10 1.98 10 3 C8.35 3 6.7 3 5 3 C5 4.32 5 5.64 5 7 C6.65 7 8.3 7 10 7 C10 7.99 10 8.98 10 10 C8.35 10 6.7 10 5 10 C5 11.32 5 12.64 5 14 C6.98 14 8.96 14 11 14 C11 13.34 11 12.68 11 12 C12.65 12 14.3 12 16 12 C16.33 11.34 16.66 10.68 17 10 C16.195625 10.020625 15.39125 10.04125 14.5625 10.0625 C12 10 12 10 11 9 C10.8671875 7.1875 10.8671875 7.1875 10.875 5 C10.87242187 4.278125 10.86984375 3.55625 10.8671875 2.8125 C11 1 11 1 12 0 C13.51928038 -0.07179964 15.04167482 -0.08392007 16.5625 -0.0625 C17.38878906 -0.05347656 18.21507812 -0.04445313 19.06640625 -0.03515625 C19.70449219 -0.02355469 20.34257812 -0.01195313 21 0 C21.33 1.65 21.66 3.3 22 5 C20.35 5 18.7 5 17 5 C16.67 5.66 16.34 6.32 16 7 C16.804375 6.979375 17.60875 6.95875 18.4375 6.9375 C21 7 21 7 22 8 C22.1328125 9.8125 22.1328125 9.8125 22.125 12 C22.12886719 13.0828125 22.12886719 13.0828125 22.1328125 14.1875 C22 16 22 16 21 17 C19.43827255 17.08685603 17.87270656 17.10702219 16.30859375 17.09765625 C15.36435547 17.09443359 14.42011719 17.09121094 13.44726562 17.08789062 C11.95743164 17.07532227 11.95743164 17.07532227 10.4375 17.0625 C9.44041016 17.05798828 8.44332031 17.05347656 7.41601562 17.04882812 C4.94398513 17.03700023 2.47198528 17.01906415 0 17 C0 11.39 0 5.78 0 0 Z " fill="#FFFFFF" transform="translate(118,80)"/>
<path d="M0 0 C1.65 0 3.3 0 5 0 C5.66 1.65 6.32 3.3 7 5 C7.66 3.35 8.32 1.7 9 0 C10.98 0 12.96 0 15 0 C15 5.61 15 11.22 15 17 C13.35 17 11.7 17 10 17 C9.67 16.01 9.34 15.02 9 14 C7.68 14 6.36 14 5 14 C4.67 14.99 4.34 15.98 4 17 C2.68 17 1.36 17 0 17 C0 11.39 0 5.78 0 0 Z " fill="#FFFFFF" transform="translate(47,80)"/>
<path d="M0 0 C5.28 0 10.56 0 16 0 C16 0.99 16 1.98 16 3 C15.01 3 14.02 3 13 3 C13 7.62 13 12.24 13 17 C11.35 17 9.7 17 8 17 C8 12.38 8 7.76 8 3 C7.01 3 6.02 3 5 3 C5 7.62 5 12.24 5 17 C3.35 17 1.7 17 0 17 C0 11.39 0 5.78 0 0 Z " fill="#FFFFFF" transform="translate(89,80)"/>
<path d="M0 0 C2.475 0.495 2.475 0.495 5 1 C5.33 1.66 5.66 2.32 6 3 C6.33 2.01 6.66 1.02 7 0 C8.32 0 9.64 0 11 0 C11 5.61 11 11.22 11 17 C9.35 16.67 7.7 16.34 6 16 C5.67 15.01 5.34 14.02 5 13 C4.67 14.32 4.34 15.64 4 17 C2.68 17 1.36 17 0 17 C0 11.39 0 5.78 0 0 Z " fill="#FFFFFF" transform="translate(106,80)"/>
<path d="M0 0 C1.23556641 0.01740234 1.23556641 0.01740234 2.49609375 0.03515625 C3.32238281 0.04417969 4.14867187 0.05320312 5 0.0625 C5.63808594 0.07410156 6.27617187 0.08570312 6.93359375 0.09765625 C7.26359375 1.74765625 7.59359375 3.39765625 7.93359375 5.09765625 C6.28359375 5.09765625 4.63359375 5.09765625 2.93359375 5.09765625 C2.60359375 5.75765625 2.27359375 6.41765625 1.93359375 7.09765625 C2.73796875 7.07703125 3.54234375 7.05640625 4.37109375 7.03515625 C6.93359375 7.09765625 6.93359375 7.09765625 7.93359375 8.09765625 C8.06640625 9.91015625 8.06640625 9.91015625 8.05859375 12.09765625 C8.06117188 12.81953125 8.06375 13.54140625 8.06640625 14.28515625 C7.93359375 16.09765625 7.93359375 16.09765625 6.93359375 17.09765625 C5.41431337 17.16945589 3.89191893 17.18157632 2.37109375 17.16015625 C1.54480469 17.15113281 0.71851563 17.14210938 -0.1328125 17.1328125 C-1.08994141 17.11541016 -1.08994141 17.11541016 -2.06640625 17.09765625 C-2.39640625 15.44765625 -2.72640625 13.79765625 -3.06640625 12.09765625 C-1.41640625 12.09765625 0.23359375 12.09765625 1.93359375 12.09765625 C2.26359375 11.43765625 2.59359375 10.77765625 2.93359375 10.09765625 C2.12921875 10.11828125 1.32484375 10.13890625 0.49609375 10.16015625 C-2.06640625 10.09765625 -2.06640625 10.09765625 -3.06640625 9.09765625 C-3.19921875 7.28515625 -3.19921875 7.28515625 -3.19140625 5.09765625 C-3.19398438 4.37578125 -3.1965625 3.65390625 -3.19921875 2.91015625 C-3.00640394 0.2788012 -2.63137052 0.12435588 0 0 Z " fill="#FFFFFF" transform="translate(144.06640625,79.90234375)"/>
<path d="M0 0 C3.3 0 6.6 0 10 0 C10 0.99 10 1.98 10 3 C8.35 3 6.7 3 5 3 C5 4.32 5 5.64 5 7 C6.32 7 7.64 7 9 7 C9 7.99 9 8.98 9 10 C7.68 10 6.36 10 5 10 C5 11.32 5 12.64 5 14 C6.65 14 8.3 14 10 14 C10 14.99 10 15.98 10 17 C6.7 17 3.4 17 0 17 C0 11.39 0 5.78 0 0 Z " fill="#FFFFFF" transform="translate(63,80)"/>
<path d="M0 0 C3.3 0 6.6 0 10 0 C10 0.99 10 1.98 10 3 C8.35 3 6.7 3 5 3 C5 4.32 5 5.64 5 7 C6.65 7 8.3 7 10 7 C10 7.99 10 8.98 10 10 C8.35 10 6.7 10 5 10 C5 12.31 5 14.62 5 17 C3.35 17 1.7 17 0 17 C0 11.39 0 5.78 0 0 Z " fill="#FFFFFF" transform="translate(78,80)"/>
</svg>
