<?xml version="1.0" encoding="UTF-8"?>
<svg version="1.1" xmlns="http://www.w3.org/2000/svg" width="512" height="512">
<path d="M0 0 C1.63127704 0.77507566 3.26362675 1.54789722 4.89697266 2.31860352 C8.30909459 3.93103199 11.71619816 5.55343546 15.12011719 7.18310547 C22.4467102 10.68214879 29.82738439 14.0630705 37.20593262 17.45074463 C41.28322249 19.32458616 45.35627305 21.20759652 49.4296875 23.08984375 C51.06736378 23.84623262 52.70505909 24.60258029 54.34277344 25.35888672 C55.15307007 25.73309753 55.9633667 26.10730835 56.79821777 26.49285889 C63.30317477 29.49660415 69.80890949 32.4986649 76.31451416 35.50100708 C80.37638211 37.37558616 84.43818791 39.25029989 88.5 41.125 C90.1249997 41.87500065 91.7499997 42.62500065 93.375 43.375 C173.8125 80.5 254.25 117.625 378.56214905 174.99984741 C380.18830936 175.75037668 381.81447921 176.50088528 383.44065857 177.25137329 C387.48548393 179.1181068 391.53014674 180.98519085 395.57446289 182.85302734 C403.0970589 186.32683715 410.62113848 189.79730778 418.15084839 193.25567627 C421.65505552 194.86540093 425.15836832 196.4770668 428.66162109 198.08886719 C430.31010455 198.84666608 431.9590115 199.6035446 433.60839844 200.359375 C438.10804257 202.42147841 442.59985887 204.49885432 447.07879639 206.60559082 C448.55168152 207.29713012 450.02657071 207.98441401 451.50323486 208.66784668 C453.69849347 209.68789228 455.88320499 210.72787738 458.06640625 211.7734375 C458.71818344 212.07246979 459.36996063 212.37150208 460.04148865 212.67959595 C464.74814763 214.97274942 467.25554865 217.4499939 470.25 221.625 C472.03468529 226.97905587 472.29514547 233.42140194 470.53125 238.828125 C467.23645998 244.93942906 462.03121599 247.9372536 455.921875 250.76953125 C455.30890564 251.0557988 454.69593628 251.34206635 454.06439209 251.63700867 C452.04600832 252.57730529 450.02314317 253.5074934 448 254.4375 C446.56684016 255.10239677 445.13390142 255.7677703 443.70117188 256.43359375 C432.3692996 261.68937111 420.99277063 266.84781951 409.61230469 271.99731445 C400.12114564 276.29589524 390.67532615 280.68411013 381.25 285.125 C369.76861962 290.53463198 358.24130765 295.83211173 346.67724609 301.0625 C336.49612735 305.66955821 326.35903904 310.36196811 316.25 315.125 C304.76861962 320.53463198 293.24130765 325.83211173 281.67724609 331.0625 C271.49612735 335.66955821 261.35903904 340.36196811 251.25 345.125 C239.76861962 350.53463198 228.24130765 355.83211173 216.67724609 361.0625 C206.49612735 365.66955821 196.35903904 370.36196811 186.25 375.125 C174.76861962 380.53463198 163.24130765 385.83211173 151.67724609 391.0625 C141.49612735 395.66955821 131.35903904 400.36196811 121.25 405.125 C109.76861962 410.53463198 98.24130765 415.83211173 86.67724609 421.0625 C76.49612246 425.66956043 66.35916584 430.36223061 56.25 435.125 C43.9107057 440.93740504 31.5291024 446.64946761 19.09130859 452.24829102 C12.7659864 455.09832265 6.46786146 457.98010349 0.2265625 461.01171875 C-0.85367188 461.52959961 -1.93390625 462.04748047 -3.046875 462.58105469 C-5.01638346 463.52894312 -6.9782489 464.49298665 -8.9296875 465.47753906 C-16.25541165 468.976111 -23.20838005 470.08174602 -31.0625 467.5625 C-35.06771387 464.67502023 -38.52620991 461.07258019 -40.75 456.625 C-41.82317072 448.34451226 -41.06954765 442.53142842 -36.18359375 435.73828125 C-35.38050781 434.71089844 -34.57742187 433.68351562 -33.75 432.625 C-32.71972654 431.28540656 -31.68980501 429.94554241 -30.66015625 428.60546875 C-28.28570756 425.53261264 -25.89096108 422.47659371 -23.48828125 419.42578125 C-19.85440679 414.78997821 -16.34996581 410.06808169 -12.875 405.3125 C-7.90967365 398.52321905 -2.86334364 391.80351518 2.25 385.125 C7.3166281 378.50561726 12.32435459 371.84996793 17.25 365.125 C22.8366242 357.49759983 28.54276338 349.96855435 34.2890625 342.4609375 C38.67064326 336.72597273 42.98542958 330.94740437 47.25 325.125 C52.8366242 317.49759983 58.54276338 309.96855435 64.2890625 302.4609375 C68.67064326 296.72597273 72.98542958 290.94740437 77.25 285.125 C82.82735926 277.51024924 88.52368118 269.9934231 94.26049805 262.49829102 C100.57092329 254.23861645 106.74314437 245.88046774 112.87817383 237.48999023 C113.86861519 236.14349058 114.89821766 234.82549743 115.95092773 233.52709961 C117.53544397 231.68826795 117.53544397 231.68826795 116.828125 229.3828125 C114.57921683 225.4527898 111.83117903 222.02541011 109 218.5 C104.0066191 212.18575188 99.12200628 205.81407178 94.375 199.3125 C89.40995481 192.52301774 84.3633386 185.80350859 79.25 179.125 C73.59634038 171.73867991 68.03529611 164.29305268 62.5390625 156.7890625 C58.17722968 150.84828567 53.72945452 144.9774674 49.25 139.125 C43.59646605 131.73858208 38.03529806 124.29305534 32.5390625 116.7890625 C28.17722968 110.84828567 23.72945452 104.9774674 19.25 99.125 C13.59646605 91.73858208 8.03529806 84.29305534 2.5390625 76.7890625 C-1.82277363 70.84828117 -6.27074006 64.97762048 -10.75 59.125 C-41.93847844 18.35108906 -41.93847844 18.35108906 -40.75 4.625 C-38.4644807 -0.29765695 -35.03305294 -3.18549249 -30.75 -6.375 C-19.40355042 -10.15714986 -10.03279013 -4.88820223 0 0 Z " fill="#FFFFFF" transform="translate(40.75,25.375)"/>
</svg>
